<?xml version="1.0" standalone="no"?>
<!DOCTYPE svg PUBLIC "-//W3C//DTD SVG 20010904//EN"
 "http://www.w3.org/TR/2001/REC-SVG-20010904/DTD/svg10.dtd">
<svg version="1.0" xmlns="http://www.w3.org/2000/svg"
 width="211.000000pt" height="211.000000pt" viewBox="0 0 211.000000 211.000000"
 preserveAspectRatio="xMidYMid meet">
<metadata>
Created by potrace 1.14, written by Peter Selinger 2001-2017
</metadata>
<g transform="translate(0.000000,211.000000) scale(0.100000,-0.100000)"
fill="#000000" stroke="none">
<path d="M906 2099 c2 -4 -4 -8 -13 -8 -10 1 -31 -2 -48 -6 -16 -3 -38 -7 -47
-8 -10 -1 -18 -6 -18 -11 0 -5 -3 -7 -6 -3 -5 5 -58 -10 -104 -30 -8 -3 -21
-7 -29 -9 -8 -1 -18 -9 -22 -16 -5 -7 -14 -13 -21 -14 -7 0 -21 -2 -31 -2 -10
-1 -15 -6 -12 -12 3 -5 -3 -10 -13 -10 -11 0 -25 -7 -32 -15 -7 -8 -17 -15
-22 -15 -10 0 -27 -13 -58 -44 -11 -11 -20 -16 -20 -10 0 5 -4 4 -8 -2 -4 -6
-28 -30 -55 -52 -26 -23 -47 -44 -47 -47 0 -2 -21 -25 -45 -50 -25 -25 -42
-45 -38 -45 5 0 3 -4 -2 -8 -16 -11 -80 -113 -100 -159 -10 -24 -23 -43 -28
-43 -4 0 -6 -4 -3 -8 3 -5 -1 -20 -9 -35 -8 -15 -12 -27 -9 -27 3 0 0 -8 -5
-18 -6 -11 -12 -30 -15 -43 -3 -13 -10 -42 -16 -64 -7 -22 -11 -48 -11 -58 0
-9 -4 -15 -8 -13 -4 3 -8 -1 -8 -9 0 -8 4 -12 9 -9 4 3 8 0 8 -5 0 -6 -4 -11
-9 -11 -14 0 -12 -223 2 -232 9 -6 9 -8 0 -8 -7 0 -13 -5 -13 -11 0 -5 4 -8 8
-5 5 3 8 -8 7 -25 -1 -16 2 -32 6 -35 4 -2 6 -13 4 -24 -2 -11 0 -20 5 -20 5
0 7 -9 5 -20 -2 -11 0 -20 4 -20 4 0 8 -6 9 -12 2 -30 12 -60 60 -170 9 -21
20 -38 25 -38 4 0 6 -4 3 -8 -3 -5 3 -18 12 -28 10 -10 19 -23 20 -29 1 -5 9
-18 17 -27 8 -10 12 -18 9 -18 -3 0 1 -6 8 -14 7 -8 29 -33 48 -56 47 -56 89
-100 95 -100 3 0 19 -14 35 -30 16 -17 34 -30 40 -30 5 0 10 -4 10 -10 0 -5 6
-10 14 -10 8 0 16 -4 18 -8 4 -12 137 -97 151 -97 23 -2 67 -17 67 -24 0 -4
12 -8 26 -9 14 -1 31 -5 37 -9 12 -7 29 -12 57 -17 9 -1 21 -6 28 -10 7 -4 19
-5 27 -2 8 3 17 1 20 -4 3 -5 12 -7 20 -3 8 3 15 1 15 -4 0 -13 33 -12 42 1 6
8 8 8 8 0 0 -8 33 -12 105 -12 71 -1 103 2 99 10 -4 6 3 5 16 -2 15 -8 20 -8
16 -1 -4 6 -2 11 3 11 6 0 11 -6 11 -12 0 -9 3 -10 8 -2 4 6 44 19 90 29 45
10 82 23 82 27 0 5 4 7 8 4 5 -3 19 1 33 8 13 7 29 14 34 16 50 16 65 23 65
31 0 5 3 9 8 8 15 -2 52 14 52 23 0 5 5 6 10 3 6 -3 10 -3 10 2 0 4 20 21 45
36 25 16 45 34 45 40 0 5 3 7 7 4 3 -4 21 9 40 28 18 19 33 31 33 28 0 -3 9 4
20 17 11 13 20 27 20 32 0 5 5 6 10 3 6 -3 10 -2 10 4 0 6 11 21 25 35 14 14
25 30 25 36 0 5 5 10 11 10 5 0 7 4 4 10 -3 6 -2 10 3 10 11 0 68 91 64 103
-1 4 2 7 7 7 5 0 17 19 26 42 9 24 22 54 28 68 14 35 13 31 22 68 4 17 12 32
17 32 5 0 7 4 4 9 -3 4 -1 23 5 42 5 19 10 49 11 67 1 18 5 35 10 38 4 3 8 14
8 25 0 14 -4 18 -12 13 -10 -6 -10 -4 0 8 14 18 14 195 0 204 -4 3 -8 11 -8
17 0 7 4 6 10 -3 6 -9 10 -10 10 -3 0 6 -4 14 -9 18 -6 3 -10 13 -10 23 0 16
-8 57 -11 57 -1 0 -3 11 -6 25 -7 42 -45 149 -54 155 -5 3 -7 12 -3 20 3 8 -1
15 -8 15 -7 0 -10 3 -6 6 3 4 -1 13 -9 21 -8 8 -12 18 -9 23 3 4 -2 11 -11 14
-8 3 -13 10 -9 15 3 6 -3 14 -12 20 -10 6 -14 11 -10 11 12 0 -45 80 -95 132
-14 15 -24 28 -21 28 3 0 -14 17 -38 38 -23 20 -61 54 -83 75 -23 20 -51 40
-63 43 -13 3 -23 10 -23 14 0 4 -8 10 -17 14 -10 3 -37 17 -60 31 -24 14 -43
22 -43 18 0 -4 -4 -3 -8 3 -7 12 -152 67 -152 58 0 -2 -9 0 -20 6 -22 12 -77
22 -122 24 -16 1 -28 4 -28 8 0 12 -224 6 -239 -6 -10 -7 -13 -7 -8 0 3 6 0
11 -8 11 -8 0 -12 -4 -9 -8z"/>
</g>
</svg>
